<svg width="38" height="38" viewBox="0 0 38 38" fill="none" xmlns="http://www.w3.org/2000/svg">
<path d="M30.258 30.258C28.7264 31.7895 26.6492 32.6499 24.4833 32.6499C22.3173 32.6499 20.2401 31.7895 18.7086 30.258C17.177 28.7264 16.3166 26.6492 16.3166 24.4833C16.3166 22.3173 17.177 20.2401 18.7086 18.7086C20.2401 17.177 22.3173 16.3166 24.4833 16.3166C26.6492 16.3166 28.7264 17.177 30.258 18.7086C31.7895 20.2401 32.6499 22.3173 32.6499 24.4833C32.6499 26.6492 31.7895 28.7264 30.258 30.258ZM30.258 30.258L36.1499 36.1499" stroke="white" stroke-width="2.3" stroke-linecap="round" stroke-linejoin="round"/>
<path d="M18.65 36.15C15.1889 36.15 11.8054 35.1237 8.92755 33.2007C6.04969 31.2778 3.80667 28.5447 2.48214 25.347C1.15761 22.1493 0.811049 18.6306 1.48629 15.2359C2.16153 11.8413 3.82824 8.72308 6.27566 6.27566C8.72308 3.82824 11.8413 2.16153 15.2359 1.48629C18.6306 0.811049 22.1493 1.15761 25.347 2.48214C28.5447 3.80667 31.2778 6.04969 33.2007 8.92755C35.1237 11.8054 36.15 15.1889 36.15 18.65" stroke="white" stroke-width="2.3" stroke-linecap="round" stroke-linejoin="round"/>
<path d="M14.433 35.6381C12.067 32.1661 10.4835 25.8567 10.4835 18.6498C10.4835 11.443 12.067 5.13518 14.433 1.66162M1.18903 17.4832H13.9835M4.64858 8.14984H32.6501M3.16925 26.8165H11.2052M22.8672 1.66162C24.6995 4.70968 25.8658 8.11104 26.2895 11.6421" stroke="white" stroke-width="2.3" stroke-linecap="round" stroke-linejoin="round"/>
</svg>
