<svg width="38" height="38" viewBox="0 0 38 38" fill="none" xmlns="http://www.w3.org/2000/svg">
<path d="M29.6226 5.53377C26.6269 4.04385 22.9583 3.16669 19 3.16669C15.0417 3.16669 11.3747 4.04385 8.37742 5.53377C6.90808 6.26527 6.17342 6.63102 5.4625 7.78052C4.75158 8.93002 4.75 10.0431 4.75 12.2677V17.7935C4.75 26.7916 11.9415 31.7949 16.1073 33.9372C17.2694 34.5341 17.8489 34.8334 19 34.8334C20.1511 34.8334 20.7306 34.5341 21.8927 33.9372C26.0569 31.7934 33.25 26.79 33.25 17.7919V12.2677C33.25 10.0431 33.25 8.93002 32.5375 7.78052C31.825 6.63102 31.0919 6.26527 29.6226 5.53377Z" stroke="white" stroke-width="2" stroke-linecap="round" stroke-linejoin="round"/>
<path d="M19 14.25V15.8334M17.4167 15.0417C17.4167 15.4616 17.5835 15.8644 17.8804 16.1613C18.1774 16.4582 18.5801 16.625 19 16.625C19.4199 16.625 19.8227 16.4582 20.1196 16.1613C20.4165 15.8644 20.5833 15.4616 20.5833 15.0417C20.5833 14.6218 20.4165 14.2191 20.1196 13.9221C19.8227 13.6252 19.4199 13.4584 19 13.4584C18.5801 13.4584 18.1774 13.6252 17.8804 13.9221C17.5835 14.2191 17.4167 14.6218 17.4167 15.0417Z" stroke="white" stroke-width="2" stroke-linecap="round" stroke-linejoin="round"/>
<path d="M20.1875 22.1667H17.8125L19 16.625L20.1875 22.1667Z" stroke="white" stroke-width="2" stroke-linecap="round" stroke-linejoin="round"/>
</svg>
