<svg width="46" height="46" viewBox="0 0 46 46" fill="none" xmlns="http://www.w3.org/2000/svg">
<path d="M38.3333 29.7083C36.0333 29.7083 33.5417 29.325 31.4333 28.5583H30.8583C30.2833 28.5583 29.9 28.75 29.5167 29.1333L25.3 33.35C19.9333 30.475 15.3333 26.0667 12.65 20.7L16.8667 16.4833C17.4417 15.9083 17.6333 15.1417 17.25 14.5667C16.675 12.4583 16.2917 9.96667 16.2917 7.66667C16.2917 6.70833 15.3333 5.75 14.375 5.75H7.66667C6.70833 5.75 5.75 6.70833 5.75 7.66667C5.75 25.6833 20.3167 40.25 38.3333 40.25C39.2917 40.25 40.25 39.2917 40.25 38.3333V31.625C40.25 30.6667 39.2917 29.7083 38.3333 29.7083ZM9.58333 9.58333H12.4583C12.65 11.3083 13.0333 13.0333 13.4167 14.5667L11.1167 16.8667C10.35 14.5667 9.775 12.075 9.58333 9.58333ZM36.4167 36.4167C33.925 36.225 31.4333 35.65 29.1333 34.8833L31.4333 32.5833C32.9667 32.9667 34.6917 33.35 36.4167 33.35V36.4167Z" fill="white"/>
</svg>
