<svg id="Layer_1" data-name="Layer 1" xmlns="http://www.w3.org/2000/svg" viewBox="0 0 665.52 196.55"><defs><style>.cls-1{fill:#808083;}.cls-2{fill:#08509d;}.cls-3{fill:#606060;}</style></defs><path class="cls-1" d="M429.54,80.12V34.66H436a5.59,5.59,0,0,1,5.59,5.59V85.7h-6.44A5.58,5.58,0,0,1,429.54,80.12Z"/><path class="cls-1" d="M518.22,80.12V34.66h6.43a5.59,5.59,0,0,1,5.59,5.59V85.7H523.8A5.58,5.58,0,0,1,518.22,80.12Z"/><path class="cls-1" d="M374.38,43.81l20-.05s4.52-.08,7,1c2,.86,3.16,2.44,3.16,5.47,0,2.4-.64,4-2,4.91a18.94,18.94,0,0,1,3.65,3.78c.59.79,1.41,2,2.5,3.85a3.76,3.76,0,0,0,.25.31,11.75,11.75,0,0,0,4.59-3.79,15.29,15.29,0,0,0,2.63-9.2c0-.33,0-.67,0-1s0-.66,0-1A17,17,0,0,0,414.86,43a11.87,11.87,0,0,0-3.08-4.34,12,12,0,0,0-5.29-2.91,30,30,0,0,0-6.12-.93c-.56,0-1.11-.07-1.64-.07s-1.08,0-1.64-.07H368.78v3.56A5.59,5.59,0,0,0,374.38,43.81Z"/><path class="cls-1" d="M405.37,64.82c-1-1.67-1.79-2.86-2.3-3.54-2.83-3.81-5.53-4.59-6.28-4.74-.77.07-1.31.1-1.35.09H380.27V53.35a5.59,5.59,0,0,0-5.58-5.59h-5.91V80.12a5.58,5.58,0,0,0,5.59,5.58h5.9v-20h13.55L405,84.35a2.81,2.81,0,0,0,2.4,1.35h11.35L405.59,65.11A3.15,3.15,0,0,1,405.37,64.82Z"/><path class="cls-1" d="M327.16,48.47c-4.64,1-8.42,2.76-11,5.28a14.3,14.3,0,0,0-4.12,8.49c0,.1,0,.19,0,.29a32.43,32.43,0,0,0,2,10.27,18.47,18.47,0,0,0,6.39,8.5,19.24,19.24,0,0,0,8.1,3.62,49.19,49.19,0,0,0,9,.78h13.81a5.58,5.58,0,0,0,5.59-5.58v-3.3L338,76.89h-.69a25.78,25.78,0,0,1-4.91-.46,7.4,7.4,0,0,1-4.14-2.38,10.27,10.27,0,0,1-2.63-4.55,20.62,20.62,0,0,1-.65-5.19h26.3a5.59,5.59,0,0,0,5.59-5.59v-3.3l-31.81.07A14.61,14.61,0,0,1,327.16,48.47Z"/><path class="cls-1" d="M337.78,34.73q-12.4,0-18.61,5.69a21.23,21.23,0,0,0-5.93,10.69c.06,0,.11-.12.17-.18,4.84-4.74,12.94-7.29,22.86-7.25.57,0,1.12-.13,1.74-.13h13.28A5.59,5.59,0,0,0,356.88,38v-3.3Z"/><path class="cls-1" d="M500.94,55.21a19.89,19.89,0,0,0-9.59-5.88,9.36,9.36,0,0,1,.58,1.47,21.21,21.21,0,0,1,.88,4.9A17.69,17.69,0,0,1,493,58v4.38c0,.71,0,1.42-.08,2.13a25.7,25.7,0,0,1-.95,5,11.13,11.13,0,0,1-2.55,4.48,7.74,7.74,0,0,1-4.22,2.38,25.7,25.7,0,0,1-4.91.46h-.34a.74.74,0,0,1-.34-.07H466.25V43.55h13.32v.07h.68a24.24,24.24,0,0,1,3.32.25c7.22.61,15.36,2.78,20.39,8.82.36.43.66.88,1,1.34-1-6-3.14-10.51-6.5-13.61q-6.17-5.69-18.65-5.76h-25V80.12a5.58,5.58,0,0,0,5.58,5.58H480.1a49.65,49.65,0,0,0,9-.78A19.55,19.55,0,0,0,503.54,72.8c.25-.69.47-1.39.67-2.1C505.14,64.18,504.06,59,500.94,55.21Z"/><path class="cls-1" d="M569,44.87l0,0h0c2-4.05,4.2-7.85,6.56-10.14v0H563.37l-23,51.06h8.32a5.59,5.59,0,0,0,5.18-3.49L564.1,56.94A120.26,120.26,0,0,1,569,44.87Z"/><path class="cls-1" d="M595.23,77.81,577.3,38.48a56.48,56.48,0,0,0-6.2,11.37l6.07,14.54h-6.25a5.58,5.58,0,0,0-5.35,4L564,73.55h17l5.07,12.17h4.09A5.59,5.59,0,0,0,595.23,77.81Z"/><path class="cls-1" d="M268,68h0L256.83,37.52a4.5,4.5,0,0,0-4.2-2.86H239.72V80.12a5.58,5.58,0,0,0,5.59,5.58h6.13l.16-40.16,11.9,36.32a5.58,5.58,0,0,0,5.31,3.84h7.62C272.07,81.52,269,71.57,268,68Z"/><path class="cls-1" d="M289.78,34.66a5.59,5.59,0,0,0-5.22,3.59l-12,31.22c1.67,5.27,3.83,10,5.63,12.41L290,46.14v34a5.58,5.58,0,0,0,5.59,5.58h5.67v-51Z"/><path class="cls-1" d="M653.61,80.93V34.66h-5.92a5.59,5.59,0,0,0-5.59,5.59V64C647.15,72.65,650.89,77.83,653.61,80.93Z"/><path class="cls-1" d="M642.11,71.65h0l0-.07c-1.43-2.29-3-4.87-4.63-7.77L621.68,37.39a5.61,5.61,0,0,0-4.8-2.73H605.51V80.12a5.59,5.59,0,0,0,5.59,5.58h6.21l-.18-38.6L638.67,83a5.55,5.55,0,0,0,4.79,2.71h9.26C650,83.12,646.6,78.8,642.11,71.65Z"/><polygon class="cls-2" points="138.1 112.17 137.98 112.17 150.24 138.36 181 138.36 123.92 6.67 58.12 156.41 74 189.88 123.92 82.11 138.1 112.17"/><path class="cls-3" d="M241.61,103.14v5.72h8.78v1.92h-8.78v6h10.15v1.9H239.61V101.22h11.82v1.92Z"/><path class="cls-3" d="M269.24,118.64l-10.45-14v14h-2V101.22h2.07l10.44,14v-14h2v17.42Z"/><path class="cls-3" d="M282.87,103.14v15.5h-2v-15.5h-5.66v-1.92h13.35v1.92Z"/><path class="cls-3" d="M294.43,103.14v5.72h8.78v1.92h-8.78v6h10.16v1.9H292.44V101.22h11.82v1.92Z"/><path class="cls-3" d="M317.41,113.09c-.49,0-.88,0-1.16,0h-4.63v5.51h-2V101.22h6.62a7.61,7.61,0,0,1,5.06,1.53,5.36,5.36,0,0,1,1.8,4.32,6,6,0,0,1-1,3.58,5.52,5.52,0,0,1-2.89,2.07l4.07,5.92H321Zm2.5-2.91a3.68,3.68,0,0,0,1.28-3.06,3.53,3.53,0,0,0-1.28-3,5.76,5.76,0,0,0-3.66-1h-4.63v8.09h4.63A5.64,5.64,0,0,0,319.91,110.18Z"/><path class="cls-3" d="M340.16,102.75a5.38,5.38,0,0,1,1.78,4.32,5.68,5.68,0,0,1-1.78,4.48,7.27,7.27,0,0,1-5,1.58h-4.56v5.51h-2V101.22h6.55A7.46,7.46,0,0,1,340.16,102.75Zm-9.57,8.48h4.49a5.62,5.62,0,0,0,3.66-1,3.71,3.71,0,0,0,1.28-3.06,3.56,3.56,0,0,0-1.28-3,5.78,5.78,0,0,0-3.66-1h-4.49Z"/><path class="cls-3" d="M354,113.09c-.5,0-.89,0-1.17,0h-4.63v5.51h-2V101.22h6.62a7.59,7.59,0,0,1,5.06,1.53,5.36,5.36,0,0,1,1.8,4.32,6,6,0,0,1-1,3.58,5.52,5.52,0,0,1-2.89,2.07l4.07,5.92h-2.26Zm2.49-2.91a3.68,3.68,0,0,0,1.28-3.06,3.53,3.53,0,0,0-1.28-3,5.74,5.74,0,0,0-3.66-1h-4.63v8.09h4.63A5.62,5.62,0,0,0,356.52,110.18Z"/><path class="cls-3" d="M365.21,118.64V101.22h2v17.42Z"/><path class="cls-3" d="M381.61,101.58a9.29,9.29,0,0,1,2.56,1.18l-.85,1.87a9,9,0,0,0-4.8-1.47,5.13,5.13,0,0,0-2.69.61,1.89,1.89,0,0,0-1,1.71,2.27,2.27,0,0,0,.56,1.57,3.8,3.8,0,0,0,1.4,1c.56.24,1.34.5,2.32.8a27.16,27.16,0,0,1,2.87,1.07,5.06,5.06,0,0,1,1.86,1.47,4,4,0,0,1,.77,2.56,4.2,4.2,0,0,1-.78,2.53,5.17,5.17,0,0,1-2.22,1.68,8.73,8.73,0,0,1-3.31.59,9.77,9.77,0,0,1-6.65-2.66l.88-1.79a8.37,8.37,0,0,0,2.76,1.81,7.92,7.92,0,0,0,3,.65,5.31,5.31,0,0,0,3-.74,2.41,2.41,0,0,0,.52-3.57,3.94,3.94,0,0,0-1.42-1c-.56-.23-1.33-.5-2.31-.79a23.79,23.79,0,0,1-2.86-1,4.83,4.83,0,0,1-1.86-1.44,4.35,4.35,0,0,1,0-4.9,4.82,4.82,0,0,1,2.12-1.58,8.37,8.37,0,0,1,3.16-.55A10.39,10.39,0,0,1,381.61,101.58Z"/><path class="cls-3" d="M391.65,103.14v5.72h8.79v1.92h-8.79v6h10.16v1.9H389.66V101.22h11.82v1.92Z"/><path class="cls-3" d="M415,101.58a9.29,9.29,0,0,1,2.56,1.18l-.85,1.87a9,9,0,0,0-4.8-1.47,5.13,5.13,0,0,0-2.69.61,1.88,1.88,0,0,0-1,1.71,2.27,2.27,0,0,0,.56,1.57,3.8,3.8,0,0,0,1.4,1c.56.24,1.34.5,2.31.8a26.62,26.62,0,0,1,2.88,1.07,5.06,5.06,0,0,1,1.86,1.47,4,4,0,0,1,.77,2.56,4.14,4.14,0,0,1-.79,2.53,5.08,5.08,0,0,1-2.21,1.68,8.73,8.73,0,0,1-3.31.59,9.77,9.77,0,0,1-6.65-2.66l.88-1.79a8.43,8.43,0,0,0,2.75,1.81,8,8,0,0,0,3.05.65,5.31,5.31,0,0,0,3-.74,2.41,2.41,0,0,0,.52-3.57,3.94,3.94,0,0,0-1.42-1c-.56-.23-1.33-.5-2.31-.79a23.17,23.17,0,0,1-2.86-1,4.83,4.83,0,0,1-1.86-1.44,4.35,4.35,0,0,1,0-4.9,4.82,4.82,0,0,1,2.12-1.58,8.33,8.33,0,0,1,3.16-.55A10.39,10.39,0,0,1,415,101.58Z"/><path class="cls-3" d="M442.41,102.75a5.38,5.38,0,0,1,1.78,4.32,5.68,5.68,0,0,1-1.78,4.48,7.27,7.27,0,0,1-5,1.58h-4.56v5.51h-2V101.22h6.55A7.46,7.46,0,0,1,442.41,102.75Zm-9.57,8.48h4.49a5.62,5.62,0,0,0,3.66-1,3.68,3.68,0,0,0,1.28-3.06,3.56,3.56,0,0,0-1.28-3,5.78,5.78,0,0,0-3.66-1h-4.49Z"/><path class="cls-3" d="M456.28,113.09c-.5,0-.89,0-1.17,0h-4.63v5.51h-2V101.22h6.62a7.59,7.59,0,0,1,5.06,1.53,5.36,5.36,0,0,1,1.8,4.32,6,6,0,0,1-1,3.58,5.52,5.52,0,0,1-2.89,2.07l4.07,5.92h-2.26Zm2.49-2.91a3.68,3.68,0,0,0,1.28-3.06,3.53,3.53,0,0,0-1.28-3,5.74,5.74,0,0,0-3.66-1h-4.63v8.09h4.63A5.62,5.62,0,0,0,458.77,110.18Z"/><path class="cls-3" d="M467.46,118.64V101.22h2v17.42Z"/><path class="cls-3" d="M480.3,118.64l-7.07-17.42h2.14l6,15.11,6-15.11h2.08l-7.11,17.42Z"/><path class="cls-3" d="M494.75,114.24l-1.94,4.4H490.7l7.81-17.42h2.06l7.79,17.42H506.2l-1.95-4.4Zm4.73-10.75-3.88,8.83h7.82Z"/><path class="cls-3" d="M515.77,103.14v15.5h-2v-15.5h-5.66v-1.92h13.35v1.92Z"/><path class="cls-3" d="M527.33,103.14v5.72h8.79v1.92h-8.79v6h10.16v1.9H525.34V101.22h11.82v1.92Z"/><path class="cls-3" d="M560,116.74v1.9h-9.63V101.22h2v15.52Z"/><path class="cls-3" d="M564.19,118.64V101.22h2v17.42Z"/><path class="cls-3" d="M588.22,118.64l0-14.36-6.34,12.51h-1.19l-6.32-12.51v14.36h-1.9V101.22h2.47l6.37,12.55,6.34-12.55h2.44v17.42Z"/><path class="cls-3" d="M596.35,118.64V101.22h2v17.42Z"/><path class="cls-3" d="M609.91,103.14v15.5h-2v-15.5h-5.66v-1.92H615.6v1.92Z"/><path class="cls-3" d="M621.47,103.14v5.72h8.78v1.92h-8.78v6h10.15v1.9H619.48V101.22H631.3v1.92Z"/><path class="cls-3" d="M648.26,102.37a8.64,8.64,0,0,1,3.22,3.13,8.91,8.91,0,0,1,0,8.86,8.6,8.6,0,0,1-3.25,3.14,9.36,9.36,0,0,1-4.59,1.14h-7V101.22h7.05A9.05,9.05,0,0,1,648.26,102.37Zm-9.6,14.37h5.07a7,7,0,0,0,3.5-.88,6.63,6.63,0,0,0,2.5-2.43,6.75,6.75,0,0,0,.92-3.48,6.64,6.64,0,0,0-.94-3.47,6.81,6.81,0,0,0-2.53-2.44,7,7,0,0,0-3.52-.9h-5Z"/><polygon class="cls-2" points="44.87 138.4 86.76 45.82 68.04 6.68 11.9 138.4 44.87 138.4"/></svg>