<svg width="216" height="75" viewBox="0 0 216 75" fill="none" xmlns="http://www.w3.org/2000/svg">
<path d="M51.906 43.0764H51.8555L56.9046 53.8079H69.5779L46.049 0L18.9856 61.1795L25.5495 74.8195L46.049 30.8405L51.906 43.0764Z" fill="white"/>
<path d="M13.5822 53.8078L30.7997 15.9969L23.0745 0L0 53.8078H13.5822Z" fill="white"/>
<path d="M143.838 41.4549V26.9352H145.899C146.897 26.9352 147.702 27.7347 147.702 28.7261V43.2778H145.641C144.643 43.2458 143.838 42.4463 143.838 41.4549Z" fill="white"/>
<path d="M172.403 41.4549V26.9352H174.463C175.462 26.9352 176.267 27.7347 176.267 28.7261V43.2778H174.206C173.208 43.2458 172.403 42.4463 172.403 41.4549Z" fill="white"/>
<path d="M126.062 29.8457H132.502C132.502 29.8457 133.951 29.8138 134.756 30.1656C135.4 30.4534 135.787 30.9331 135.787 31.9245C135.787 32.6921 135.594 33.2038 135.143 33.4916C135.529 33.7795 135.916 34.1633 136.334 34.7069C136.527 34.9628 136.785 35.3466 137.139 35.9223C137.171 35.9542 137.204 35.9862 137.204 36.0182C137.815 35.7304 138.331 35.3146 138.685 34.8029C139.264 33.9714 139.554 32.9799 139.522 31.8606C139.522 31.7646 139.522 31.6367 139.522 31.5408C139.522 31.4448 139.522 31.3169 139.522 31.2209C139.458 30.6453 139.329 30.1016 139.103 29.5899C138.878 29.0462 138.556 28.5984 138.105 28.2147C137.622 27.7669 137.043 27.4471 136.399 27.2872C135.755 27.1273 135.111 27.0313 134.434 26.9994C134.241 26.9994 134.08 26.9674 133.919 26.9674C133.758 26.9674 133.565 26.9674 133.404 26.9354H124.291V28.0867C124.259 29.0462 125.096 29.8457 126.062 29.8457Z" fill="white"/>
<path d="M136.044 36.5624C135.722 36.0188 135.465 35.635 135.304 35.4431C134.402 34.2278 133.533 33.9719 133.275 33.94C133.018 33.9719 132.857 33.9719 132.857 33.9719H127.962V32.9165C127.962 31.9251 127.157 31.1256 126.159 31.1256H124.259V41.4876C124.259 42.4791 125.064 43.2786 126.062 43.2786H127.962V36.8823H132.341L135.948 42.8628C136.109 43.1187 136.399 43.3106 136.721 43.3106H140.392L136.141 36.7224C136.109 36.6264 136.077 36.5944 136.044 36.5624Z" fill="white"/>
<path d="M110.864 31.3499C109.383 31.6697 108.16 32.2453 107.322 33.0449C106.582 33.7485 106.163 34.6759 106.002 35.7633C106.002 35.7953 106.002 35.8273 106.002 35.8593C106.034 36.9786 106.26 38.066 106.646 39.1534C107.033 40.2088 107.709 41.1362 108.707 41.8718C109.512 42.4795 110.381 42.8633 111.315 43.0232C112.249 43.1831 113.183 43.279 114.181 43.279H118.625C119.623 43.279 120.428 42.4795 120.428 41.488V40.4327L114.342 40.4646C114.31 40.4646 114.278 40.4646 114.246 40.4646C114.213 40.4646 114.181 40.4646 114.149 40.4646C113.602 40.4646 113.086 40.4007 112.571 40.3047C112.056 40.2088 111.605 39.9529 111.251 39.5372C110.832 39.0894 110.542 38.6097 110.414 38.098C110.285 37.5543 110.22 37.0106 110.22 36.4349H118.689C119.688 36.4349 120.493 35.6354 120.493 34.644V33.5886L110.253 33.6206C110.253 32.6931 110.478 31.9255 110.864 31.3499Z" fill="white"/>
<path d="M114.276 26.9358C111.603 26.9358 109.607 27.5435 108.287 28.7588C107.385 29.5903 106.741 30.7416 106.387 32.1808C106.419 32.1488 106.419 32.1488 106.451 32.1168C107.997 30.6137 110.605 29.7822 113.825 29.7822C114.018 29.7502 114.179 29.7502 114.373 29.7502H118.655C119.654 29.7502 120.459 28.9507 120.459 27.9592V26.9038L114.276 26.9358Z" fill="white"/>
<path d="M166.83 33.492C166.025 32.5646 164.931 31.9569 163.739 31.6051C163.804 31.765 163.868 31.9249 163.932 32.0849C164.093 32.5966 164.19 33.1083 164.222 33.652C164.254 33.9078 164.287 34.1317 164.287 34.3875C164.287 34.6434 164.287 34.8673 164.287 35.0911C164.287 35.315 164.287 35.5389 164.287 35.7627C164.287 35.9866 164.287 36.2105 164.254 36.4344C164.19 36.9781 164.093 37.5217 163.932 38.0334C163.771 38.5771 163.514 39.0569 163.127 39.4726C162.741 39.8884 162.29 40.1442 161.775 40.2402C161.26 40.3361 160.744 40.4001 160.197 40.4001C160.165 40.4001 160.133 40.4001 160.1 40.4001C160.068 40.4001 160.036 40.4001 160.004 40.3681H155.721V29.7502H160.004V29.7822C160.036 29.7822 160.068 29.7822 160.1 29.7822C160.133 29.7822 160.165 29.7822 160.197 29.7822C160.551 29.7822 160.905 29.8142 161.26 29.8781C163.578 30.07 166.219 30.7736 167.829 32.6925C167.958 32.8204 168.054 32.9803 168.151 33.1083C167.829 31.1894 167.153 29.7502 166.058 28.7588C164.737 27.5435 162.741 26.9358 160.068 26.9038H152.018V41.4555C152.018 42.4469 152.823 43.2465 153.821 43.2465H160.197C161.195 43.2465 162.194 43.1505 163.095 42.9906C164.029 42.8307 164.866 42.4469 165.671 41.8393C166.637 41.1037 167.346 40.1762 167.732 39.1208C167.829 38.897 167.893 38.6731 167.958 38.4492C168.183 36.3704 167.829 34.7074 166.83 33.492Z" fill="white"/>
<path d="M188.759 30.1973C189.403 28.8861 190.112 27.6708 190.885 26.9352H186.956L179.55 43.2778H182.222C182.963 43.2778 183.607 42.8301 183.897 42.1585L187.214 34.0671C187.536 33.0117 188.083 31.5406 188.759 30.1973Z" fill="white"/>
<path d="M197.194 40.7194L191.43 28.1507C190.85 28.8862 190.142 30.1975 189.433 31.7966L191.398 36.4339H189.401C188.596 36.4339 187.888 36.9456 187.662 37.7132L187.179 39.3762H192.654L194.296 43.278H195.616C196.872 43.246 197.741 41.9028 197.194 40.7194Z" fill="white"/>
<path d="M91.8336 37.5857L88.227 27.8313C88.0982 27.4795 87.6796 26.9038 86.8746 26.9038H82.7206V41.4555C82.7206 42.4469 83.5257 43.2465 84.5239 43.2465H86.4882L86.5526 30.3898L90.3845 41.9992C90.6421 42.7348 91.3183 43.2145 92.0912 43.2145H94.5385C93.1216 41.9032 92.1556 38.737 91.8336 37.5857Z" fill="white"/>
<path d="M98.8179 26.9352C98.0773 26.9352 97.4011 27.383 97.1435 28.0866L93.2793 38.0648C93.8267 39.7599 94.503 41.263 95.0826 42.0306L98.8823 30.6131V41.4869C98.8823 42.4783 99.6874 43.2779 100.686 43.2779H102.521V26.9672H98.8179V26.9352Z" fill="white"/>
<path d="M216 41.711V26.9354H214.1C213.102 26.9354 212.297 27.735 212.297 28.7264V36.3381C213.907 39.0885 215.131 40.7195 216 41.711Z" fill="white"/>
<path d="M212.297 38.7681C211.814 38.0006 211.331 37.201 210.783 36.2736L205.696 27.8304C205.374 27.2867 204.794 26.9669 204.15 26.9669H200.479V41.5185C200.479 42.51 201.284 43.3095 202.282 43.3095H204.279L204.214 30.9646L211.17 42.3821C211.492 42.9257 212.071 43.2456 212.715 43.2456H215.71C214.841 42.414 213.746 41.0388 212.297 38.7681Z" fill="white"/>
</svg>
